<svg width="48.000000" height="48.000000" viewBox="0 0 48 48" fill="none" xmlns="http://www.w3.org/2000/svg" xmlns:xlink="http://www.w3.org/1999/xlink">
	<desc>
			Created with Pixso.
	</desc>
	<defs>
		<clipPath id="clip34_2268">
			<rect id="Instagram" width="48.000000" height="48.000000" fill="white" fill-opacity="0"/>
		</clipPath>
	</defs>
	<rect id="Instagram" width="48.000000" height="48.000000" fill="#FFFFFF" fill-opacity="0"/>
	<g clip-path="url(#clip34_2268)">
		<path id="Vector" d="M20.0054 24.0614C20.0054 21.8504 21.7969 20.0576 24.0071 20.0576C26.2175 20.0576 28.01 21.8504 28.01 24.0614C28.01 26.2725 26.2175 28.0653 24.0071 28.0653C21.7969 28.0653 20.0054 26.2725 20.0054 24.0614ZM17.8416 24.0614C17.8416 27.4677 20.6021 30.2288 24.0071 30.2288C27.4124 30.2288 30.1729 27.4677 30.1729 24.0614C30.1729 20.6552 27.4124 17.8941 24.0071 17.8941C20.6021 17.8941 17.8416 20.6552 17.8416 24.0614ZM28.9761 17.6496C28.9758 17.9346 29.0603 18.2133 29.2185 18.4504C29.3767 18.6875 29.6018 18.8723 29.865 18.9815C30.1282 19.0907 30.4177 19.1194 30.6975 19.0639C30.9768 19.0084 31.2336 18.8712 31.4353 18.6697C31.637 18.4682 31.7742 18.2115 31.8298 17.9319C31.8855 17.6523 31.8572 17.3625 31.7483 17.0991C31.6394 16.8357 31.4546 16.6106 31.2178 16.4521C30.981 16.2936 30.7024 16.209 30.4175 16.2089C30.0354 16.2091 29.6687 16.3609 29.3984 16.631C29.1282 16.9011 28.9763 17.2675 28.9761 17.6496ZM19.1562 33.8378C17.9856 33.7845 17.3494 33.5895 16.9265 33.4247C16.366 33.2064 15.9658 32.9464 15.5454 32.5263C15.1248 32.1062 14.8645 31.7065 14.6472 31.1457C14.4824 30.7229 14.2874 30.0863 14.2341 28.9153C14.176 27.6493 14.1643 27.269 14.1643 24.0615C14.1643 20.8541 14.177 20.4749 14.2341 19.2078C14.2876 18.0368 14.4839 17.4014 14.6472 16.9774C14.8655 16.4166 15.1255 16.0165 15.5454 15.5958C15.9653 15.1752 16.365 14.9148 16.9265 14.6975C17.3491 14.5326 17.9856 14.3375 19.1562 14.2843C20.4219 14.2261 20.802 14.2144 24.0071 14.2144C27.2124 14.2144 27.5928 14.227 28.8596 14.2843C30.0303 14.3376 30.6653 14.5341 31.0894 14.6975C31.6499 14.9148 32.0498 15.1758 32.4705 15.5958C32.8911 16.0159 33.1504 16.4166 33.3687 16.9774C33.5334 17.4001 33.7285 18.0368 33.7815 19.2078C33.8398 20.4749 33.8516 20.8541 33.8516 24.0615C33.8516 27.269 33.8398 27.6482 33.7815 28.9153C33.7283 30.0863 33.5325 30.7228 33.3687 31.1457C33.1504 31.7065 32.8904 32.1066 32.4705 32.5263C32.0505 32.946 31.6499 33.2064 31.0894 33.4247C30.6667 33.5896 30.0303 33.7846 28.8596 33.8378C27.594 33.8961 27.2136 33.9077 24.0071 33.9077C20.8008 33.9077 20.4216 33.8961 19.1562 33.8378ZM19.0569 12.1235C17.7786 12.1817 16.9053 12.3845 16.1423 12.6814C15.3523 12.988 14.6836 13.3993 14.0154 14.0667C13.3472 14.7342 12.937 15.4042 12.6304 16.1944C12.3335 16.9579 12.1309 17.8311 12.0728 19.1097C12.0134 20.3903 12 20.7997 12 24.0614C12 27.3232 12.0134 27.7326 12.0728 29.0132C12.1309 30.2919 12.3335 31.165 12.6304 31.9285C12.937 32.7183 13.3472 33.389 14.0154 34.0561C14.6836 34.7233 15.3523 35.134 16.1423 35.4415C16.9065 35.7384 17.7786 35.9411 19.0569 35.9994C20.3379 36.0576 20.7463 36.0721 24.0071 36.0721C27.2681 36.0721 27.6772 36.0586 28.9575 35.9994C30.2358 35.9411 31.1086 35.7384 31.8721 35.4415C32.6616 35.134 33.3308 34.7236 33.999 34.0561C34.6672 33.3887 35.0767 32.7183 35.384 31.9285C35.6809 31.165 35.8843 30.2918 35.9417 29.0132C36 27.7316 36.0134 27.3232 36.0134 24.0614C36.0134 20.7997 36 20.3903 35.9417 19.1097C35.8835 17.831 35.6809 16.9574 35.384 16.1944C35.0767 15.4046 34.6663 14.7352 33.999 14.0667C33.3318 13.3983 32.6616 12.988 31.873 12.6814C31.1086 12.3845 30.2358 12.1808 28.9585 12.1235C27.6782 12.0653 27.2688 12.0508 24.0083 12.0508C20.7473 12.0508 20.3379 12.0643 19.0569 12.1235Z" fill="#FFFFFF" fill-opacity="1.000000" fill-rule="nonzero"/>
		<path id="Vector" d="M20.0054 24.0614C20.0054 21.8504 21.7969 20.0576 24.0071 20.0576C26.2175 20.0576 28.01 21.8504 28.01 24.0614C28.01 26.2725 26.2175 28.0653 24.0071 28.0653C21.7969 28.0653 20.0054 26.2725 20.0054 24.0614ZM17.8416 24.0614C17.8416 27.4677 20.6021 30.2288 24.0071 30.2288C27.4124 30.2288 30.1729 27.4677 30.1729 24.0614C30.1729 20.6552 27.4124 17.8941 24.0071 17.8941C20.6021 17.8941 17.8416 20.6552 17.8416 24.0614ZM28.9761 17.6496C28.9758 17.9346 29.0603 18.2133 29.2185 18.4504C29.3767 18.6875 29.6018 18.8723 29.865 18.9815C30.1282 19.0907 30.4177 19.1194 30.6975 19.0639C30.9768 19.0084 31.2336 18.8712 31.4353 18.6697C31.637 18.4682 31.7742 18.2115 31.8298 17.9319C31.8855 17.6523 31.8572 17.3625 31.7483 17.0991C31.6394 16.8357 31.4546 16.6106 31.2178 16.4521C30.981 16.2936 30.7024 16.209 30.4175 16.2089C30.0354 16.2091 29.6687 16.3609 29.3984 16.631C29.1282 16.9011 28.9763 17.2675 28.9761 17.6496ZM19.1562 33.8378C17.9856 33.7845 17.3494 33.5895 16.9265 33.4247C16.366 33.2064 15.9658 32.9464 15.5454 32.5263C15.1248 32.1062 14.8645 31.7065 14.6472 31.1457C14.4824 30.7229 14.2874 30.0863 14.2341 28.9153C14.176 27.6493 14.1643 27.269 14.1643 24.0615C14.1643 20.8541 14.177 20.4749 14.2341 19.2078C14.2876 18.0368 14.4839 17.4014 14.6472 16.9774C14.8655 16.4166 15.1255 16.0165 15.5454 15.5958C15.9653 15.1752 16.365 14.9148 16.9265 14.6975C17.3491 14.5326 17.9856 14.3375 19.1562 14.2843C20.4219 14.2261 20.802 14.2144 24.0071 14.2144C27.2124 14.2144 27.5928 14.227 28.8596 14.2843C30.0303 14.3376 30.6653 14.5341 31.0894 14.6975C31.6499 14.9148 32.0498 15.1758 32.4705 15.5958C32.8911 16.0159 33.1504 16.4166 33.3687 16.9774C33.5334 17.4001 33.7285 18.0368 33.7815 19.2078C33.8398 20.4749 33.8516 20.8541 33.8516 24.0615C33.8516 27.269 33.8398 27.6482 33.7815 28.9153C33.7283 30.0863 33.5325 30.7228 33.3687 31.1457C33.1504 31.7065 32.8904 32.1066 32.4705 32.5263C32.0505 32.946 31.6499 33.2064 31.0894 33.4247C30.6667 33.5896 30.0303 33.7846 28.8596 33.8378C27.594 33.8961 27.2136 33.9077 24.0071 33.9077C20.8008 33.9077 20.4216 33.8961 19.1562 33.8378ZM19.0569 12.1235C17.7786 12.1817 16.9053 12.3845 16.1423 12.6814C15.3523 12.988 14.6836 13.3993 14.0154 14.0667C13.3472 14.7342 12.937 15.4042 12.6304 16.1944C12.3335 16.9579 12.1309 17.8311 12.0728 19.1097C12.0134 20.3903 12 20.7997 12 24.0614C12 27.3232 12.0134 27.7326 12.0728 29.0132C12.1309 30.2919 12.3335 31.165 12.6304 31.9285C12.937 32.7183 13.3472 33.389 14.0154 34.0561C14.6836 34.7233 15.3523 35.134 16.1423 35.4415C16.9065 35.7384 17.7786 35.9411 19.0569 35.9994C20.3379 36.0576 20.7463 36.0721 24.0071 36.0721C27.2681 36.0721 27.6772 36.0586 28.9575 35.9994C30.2358 35.9411 31.1086 35.7384 31.8721 35.4415C32.6616 35.134 33.3308 34.7236 33.999 34.0561C34.6672 33.3887 35.0767 32.7183 35.384 31.9285C35.6809 31.165 35.8843 30.2918 35.9417 29.0132C36 27.7316 36.0134 27.3232 36.0134 24.0614C36.0134 20.7997 36 20.3903 35.9417 19.1097C35.8835 17.831 35.6809 16.9574 35.384 16.1944C35.0767 15.4046 34.6663 14.7352 33.999 14.0667C33.3318 13.3983 32.6616 12.988 31.873 12.6814C31.1086 12.3845 30.2358 12.1808 28.9585 12.1235C27.6782 12.0653 27.2688 12.0508 24.0083 12.0508C20.7473 12.0508 20.3379 12.0643 19.0569 12.1235Z" fill="#FFFFFF" fill-opacity="1.000000" fill-rule="nonzero"/>
	</g>
</svg>
