<svg width="48.000000" height="48.000000" viewBox="0 0 48 48" fill="none" xmlns="http://www.w3.org/2000/svg" xmlns:xlink="http://www.w3.org/1999/xlink">
	<desc>
			Created with Pixso.
	</desc>
	<defs>
		<clipPath id="clip34_2271">
			<rect id="Linkedin" width="48.000000" height="48.000000" fill="white" fill-opacity="0"/>
		</clipPath>
	</defs>
	<rect id="Linkedin" width="48.000000" height="48.000000" fill="#FFFFFF" fill-opacity="0"/>
	<g clip-path="url(#clip34_2271)">
		<path id="Vector" d="M18.4788 33.7264L18.4788 20.7602L14.1729 20.7602L14.1729 33.7264L18.4788 33.7264ZM16.3267 18.9902C17.8279 18.9902 18.7625 17.9945 18.7625 16.7503C18.7344 15.4776 17.8279 14.5098 16.3552 14.5098C14.8816 14.5098 13.9189 15.4776 13.9189 16.7501C13.9189 17.9944 14.8533 18.9901 16.2983 18.9901L16.3267 18.9902ZM20.8621 33.7264L25.1677 33.7264L25.1677 26.4863C25.1677 26.0992 25.1958 25.7112 25.3096 25.4348C25.6208 24.6602 26.3291 23.8584 27.519 23.8584C29.0767 23.8584 29.7002 25.0473 29.7002 26.7906L29.7002 33.7264L34.0056 33.7264L34.0056 26.292C34.0056 22.3095 31.8816 20.4562 29.0488 20.4562C26.7261 20.4562 25.7061 21.7555 25.1394 22.6405L25.168 22.6405L25.168 20.7606L20.8623 20.7606C20.9185 21.977 20.8621 33.7264 20.8621 33.7264Z" fill="#FFFFFF" fill-opacity="1.000000" fill-rule="nonzero"/>
	</g>
</svg>
