<svg width="18.673828" height="17.858643" viewBox="0 0 18.6738 17.8586" fill="none" xmlns="http://www.w3.org/2000/svg" xmlns:xlink="http://www.w3.org/1999/xlink">
	<desc>
			Created with Pixso.
	</desc>
	<defs/>
	<path id="Star 1" d="M8.38574 0.690918L6.86719 5.36475C6.7334 5.77673 6.34937 6.05566 5.91626 6.05566L1.00195 6.05566C0.0332031 6.05566 -0.369629 7.29529 0.414062 7.86475L4.38989 10.7533C4.74048 11.0079 4.88696 11.4592 4.75317 11.8713L3.23462 16.545C2.9353 17.4664 3.98975 18.2325 4.77344 17.6631L8.74902 14.7745C9.09961 14.5199 9.57422 14.5199 9.9248 14.7745L13.9004 17.6631C14.6841 18.2325 15.7385 17.4664 15.4392 16.545L13.9207 11.8713C13.7869 11.4592 13.9333 11.0079 14.2839 10.7533L18.2598 7.86475C19.0435 7.29529 18.6406 6.05566 17.6719 6.05566L12.7576 6.05566C12.3245 6.05566 11.9404 5.77673 11.8066 5.36475L10.2881 0.690918C9.98853 -0.230347 8.6853 -0.230347 8.38574 0.690918Z" fill="#FFB31F" fill-opacity="1.000000" fill-rule="evenodd"/>
</svg>
