<svg width="48.000000" height="48.000000" viewBox="0 0 48 48" fill="none" xmlns="http://www.w3.org/2000/svg" xmlns:xlink="http://www.w3.org/1999/xlink">
	<desc>
			Created with Pixso.
	</desc>
	<defs>
		<clipPath id="clip34_2273">
			<rect id="Twitter" width="48.000000" height="48.000000" fill="white" fill-opacity="0"/>
		</clipPath>
	</defs>
	<rect id="Twitter" width="48.000000" height="48.000000" fill="#FFFFFF" fill-opacity="0"/>
	<g clip-path="url(#clip34_2273)">
		<path id="Vector" d="M35.9131 16.4008C35.1206 16.7422 34.2874 16.9799 33.4341 17.1081C33.833 17.0396 34.4199 16.3209 34.6536 16.03C35.0085 15.5912 35.2791 15.0903 35.4514 14.5527C35.4514 14.5128 35.4915 14.4557 35.4514 14.4272C35.4314 14.4162 35.4089 14.4105 35.386 14.4105C35.363 14.4105 35.3406 14.4162 35.3203 14.4272C34.3938 14.9294 33.4077 15.3127 32.3855 15.568C32.3499 15.5789 32.3118 15.5799 32.2759 15.5708C32.2395 15.5618 32.2065 15.5431 32.1802 15.5167C32.1008 15.4218 32.0151 15.3323 31.9238 15.2486C31.5068 14.8746 31.0337 14.5686 30.522 14.3416C29.8311 14.0579 29.0845 13.935 28.3391 13.9823C27.616 14.028 26.9099 14.2222 26.2646 14.5527C25.6296 14.9012 25.0713 15.3746 24.6235 15.9445C24.1526 16.531 23.8123 17.2118 23.6262 17.9409C23.4727 18.6344 23.4551 19.3512 23.575 20.0513C23.575 20.1711 23.575 20.1882 23.4722 20.1711C19.4089 19.5722 16.075 18.1291 13.3511 15.0318C13.2312 14.8949 13.1687 14.8949 13.0718 15.0318C11.8865 16.8343 12.4619 19.6863 13.9436 21.0952C14.1431 21.2834 14.3484 21.4659 14.5649 21.6371C13.8855 21.5888 13.2227 21.4045 12.616 21.0952C12.502 21.021 12.4392 21.061 12.4333 21.1979C12.4172 21.3876 12.4172 21.5785 12.4333 21.7683C12.5522 22.6778 12.9104 23.5394 13.4712 24.265C14.032 24.9906 14.7751 25.5541 15.6248 25.898C15.832 25.9868 16.0479 26.0537 16.2688 26.0976C15.6399 26.2215 14.9949 26.2408 14.3596 26.1546C14.2229 26.1261 14.1716 26.2003 14.2229 26.3315C15.0605 28.6131 16.8787 29.3089 18.2122 29.6968C18.3945 29.7253 18.5769 29.7253 18.782 29.771C18.782 29.771 18.782 29.771 18.7478 29.8052C18.3547 30.5239 16.7646 31.0087 16.0352 31.2597C14.7039 31.7384 13.2842 31.9214 11.875 31.7959C11.6526 31.7617 11.6016 31.7674 11.5444 31.7959C11.4875 31.8244 11.5444 31.8872 11.6072 31.9442C11.8921 32.1324 12.177 32.2979 12.4734 32.4576C13.3555 32.9392 14.2883 33.3218 15.2544 33.5984C20.2581 34.9787 25.8887 33.9634 29.6443 30.2273C32.5964 27.2954 33.6335 23.2513 33.6335 19.2014C33.6335 19.0474 33.8215 18.9562 33.9299 18.8763C34.6768 18.2939 35.3352 17.606 35.8845 16.8343C35.9797 16.7192 36.0286 16.5728 36.0215 16.4236C36.0215 16.338 36.0215 16.3551 35.9131 16.4008Z" fill="#FFFFFF" fill-opacity="1.000000" fill-rule="nonzero"/>
	</g>
</svg>
