<svg width="48.000000" height="48.000000" viewBox="0 0 48 48" fill="none" xmlns="http://www.w3.org/2000/svg" xmlns:xlink="http://www.w3.org/1999/xlink">
	<desc>
			Created with Pixso.
	</desc>
	<defs>
		<clipPath id="clip34_2275">
			<rect id="Youtube" width="48.000000" height="48.000000" fill="white" fill-opacity="0"/>
		</clipPath>
	</defs>
	<rect id="Youtube" width="48.000000" height="48.000000" fill="#FFFFFF" fill-opacity="0"/>
	<g clip-path="url(#clip34_2275)">
		<path id="Vector" d="M37.3503 17.398C37.0371 16.2198 36.1099 15.2903 34.9304 14.9718C32.7976 14.4001 24.2405 14.4001 24.2405 14.4001C24.2405 14.4001 15.6877 14.4001 13.5508 14.9718C12.3757 15.286 11.4485 16.2154 11.1309 17.398C10.5605 19.5361 10.5605 24.0001 10.5605 24.0001C10.5605 24.0001 10.5605 28.4641 11.1309 30.6023C11.4441 31.7805 12.3713 32.71 13.5508 33.0285C15.6877 33.6001 24.2405 33.6001 24.2405 33.6001C24.2405 33.6001 32.7976 33.6001 34.9304 33.0285C36.1055 32.7143 37.0327 31.785 37.3503 30.6023C37.9207 28.4641 37.9207 24.0001 37.9207 24.0001C37.9207 24.0001 37.9207 19.5361 37.3503 17.398Z" fill="#FFFFFF" fill-opacity="1.000000" fill-rule="nonzero"/>
		<path id="Vector" d="M21.5073 28.1152L28.615 24.0002L21.5073 19.8853L21.5073 28.1152Z" fill="#1A2434" fill-opacity="1.000000" fill-rule="nonzero"/>
	</g>
</svg>
